HIERARCHY
ROOT Hips
{
	OFFSET 0.000000 0.000000 0.000000
	CHANNELS 6 Xposition Yposition Zposition Zrotation Yrotation Xrotation 
	JOINT LHipJoint
	{
		OFFSET 0.000000 0.000000 0.000000
		CHANNELS 3 Zrotation Yrotation Xrotation
		JOINT LeftUpLeg
		{
			OFFSET 1.363060 -1.794630 0.839290
			CHANNELS 3 Zrotation Yrotation Xrotation
			JOINT LeftLeg
			{
				OFFSET 2.448110 -6.726130 0.000000
				CHANNELS 3 Zrotation Yrotation Xrotation
				JOINT LeftFoot
				{
					OFFSET 2.562200 -7.039590 0.000000
					CHANNELS 3 Zrotation Yrotation Xrotation
					JOINT LeftToeBase
					{
						OFFSET 0.157640 -0.433110 2.322550
						CHANNELS 3 Zrotation Yrotation Xrotation
						End Site
						{
							OFFSET 0.000000 0.000000 0.000000
						}
					}
				}
			}
		}
	}
	JOINT RHipJoint
	{
		OFFSET 0.000000 0.000000 0.000000
		CHANNELS 3 Zrotation Yrotation Xrotation
		JOINT RightUpLeg
		{
			OFFSET -1.305520 -1.794630 0.839290
			CHANNELS 3 Zrotation Yrotation Xrotation
			JOINT RightLeg
			{
				OFFSET -2.542530 -6.985550 0.000000
				CHANNELS 3 Zrotation Yrotation Xrotation
				JOINT RightFoot
				{
					OFFSET -2.568260 -7.056230 0.000000
					CHANNELS 3 Zrotation Yrotation Xrotation
					JOINT RightToeBase
					{
						OFFSET -0.164730 -0.452590 2.363150
						CHANNELS 3 Zrotation Yrotation Xrotation
						End Site
						{
							OFFSET 0.000000 0.000000 0.000000
						}
					}
				}
			}
		}
	}
	JOINT LowerBack
	{
		OFFSET 0.000000 0.000000 0.000000
		CHANNELS 3 Zrotation Yrotation Xrotation
		JOINT Spine
		{
			OFFSET 0.028270 2.035590 -0.193380
			CHANNELS 3 Zrotation Yrotation Xrotation
			JOINT Spine1
			{
				OFFSET 0.056720 2.048850 -0.042750
				CHANNELS 3 Zrotation Yrotation Xrotation
				JOINT Neck
				{
					OFFSET 0.000000 0.000000 0.000000
					CHANNELS 3 Zrotation Yrotation Xrotation
					JOINT Neck1
					{
						OFFSET -0.054170 1.746240 0.172020
						CHANNELS 3 Zrotation Yrotation Xrotation
						JOINT Head
						{
							OFFSET 0.104070 1.761360 -0.123970
							CHANNELS 3 Zrotation Yrotation Xrotation
							End Site
							{
								OFFSET 0.000000 0.000000 0.000000
							}
						}
					}
				}
				JOINT LeftShoulder
				{
					OFFSET 0.000000 0.000000 0.000000
					CHANNELS 3 Zrotation Yrotation Xrotation
					JOINT LeftArm
					{
						OFFSET 3.362410 1.200890 -0.311210
						CHANNELS 3 Zrotation Yrotation Xrotation
						JOINT LeftForeArm
						{
							OFFSET 4.983000 -0.000000 -0.000000
							CHANNELS 3 Zrotation Yrotation Xrotation
							JOINT LeftHand
							{
								OFFSET 3.483560 -0.000000 -0.000000
								CHANNELS 3 Zrotation Yrotation Xrotation
								JOINT LeftFingerBase
								{
									OFFSET 0.000000 0.000000 0.000000
									CHANNELS 3 Zrotation Yrotation Xrotation
									JOINT LeftHandIndex1
									{
										OFFSET 0.715260 -0.000000 -0.000000
										CHANNELS 3 Zrotation Yrotation Xrotation
										End Site
										{
											OFFSET 0.000000 0.000000 0.000000
										}
									}
								}
								JOINT LThumb
								{
									OFFSET 0.000000 0.000000 0.000000
									CHANNELS 3 Zrotation Yrotation Xrotation
									End Site
									{
										OFFSET 0.000000 0.000000 0.000000
									}
								}
							}
						}
					}
				}
				JOINT RightShoulder
				{
					OFFSET 0.000000 0.000000 0.000000
					CHANNELS 3 Zrotation Yrotation Xrotation
					JOINT RightArm
					{
						OFFSET -3.136600 1.374050 -0.404650
						CHANNELS 3 Zrotation Yrotation Xrotation
						JOINT RightForeArm
						{
							OFFSET -5.241900 -0.000000 -0.000000
							CHANNELS 3 Zrotation Yrotation Xrotation
							JOINT RightHand
							{
								OFFSET -3.444170 -0.000000 -0.000000
								CHANNELS 3 Zrotation Yrotation Xrotation
								JOINT RightFingerBase
								{
									OFFSET 0.000000 0.000000 0.000000
									CHANNELS 3 Zrotation Yrotation Xrotation
									JOINT RightHandIndex1
									{
										OFFSET -0.622530 -0.000000 -0.000000
										CHANNELS 3 Zrotation Yrotation Xrotation
										End Site
										{
											OFFSET 0.000000 0.000000 0.000000
										}
									}
								}
								JOINT RThumb
								{
									OFFSET 0.000000 0.000000 0.000000
									CHANNELS 3 Zrotation Yrotation Xrotation
									End Site
									{
										OFFSET 0.000000 0.000000 0.000000
									}
								}
							}
						}
					}
				}
			}
		}
	}
}
MOTION
Frames: 5
Frame Time: 0.008333
9.356645 17.267169 -12.581638 1.657639 -3.913448 2.884928 -5.211183 1.191404 1.538953 -20.697276 -10.155982 -19.679420 2.669677 12.168623 38.773524 0.698906 0.370343 -4.584967 0.010100 0.650400 1.787200 2.153854 -2.024005 1.846540 12.452953 8.862431 -18.873556 -21.478662 -18.579606 94.761945 2.772462 -13.608992 3.946518 -0.815300 5.761700 -16.094600 -1.522676 0.239143 12.960864 0.203904 0.189874 -1.945153 -0.535561 0.161247 -2.257394 -5.761791 1.373892 -8.854765 6.955841 2.092457 -13.222750 2.025400 0.750000 -2.991400 -4.018354 -2.583952 0.669638 -76.322890 7.908181 36.308310 111.413812 -56.964846 -79.609716 -0.256785 0.079462 -27.551283 32.523242 3.014563 1.786900 -7.125000 0.000000 0.000000 4.983800 33.257900 -1.439000 6.593996 2.178734 -0.467455 65.484926 -20.633270 47.418429 -80.289751 59.722776 -51.701757 0.323835 -0.842697 -10.942464 -51.867962 34.456690 -36.823100 7.125000 0.000000 0.000000 -9.506700 18.927000 -12.210200
9.349361 17.245854 -12.437066 1.952628 -3.789624 2.909283 -5.200830 1.200629 1.628846 -21.103604 -9.999113 -19.391787 2.742757 12.196849 39.010381 0.885822 -0.150570 -4.957821 0.022096 0.906167 2.490941 2.104311 -1.927627 1.705449 12.030379 8.993136 -19.991777 -21.884460 -18.614354 96.008082 2.778294 -13.659440 3.305608 -0.816795 5.766892 -16.109506 -1.897638 0.256433 13.006517 0.157736 0.161792 -1.962289 -0.447835 0.135357 -2.329798 -6.059483 1.342449 -8.530340 7.264073 2.085694 -13.529879 2.213636 0.751888 -3.186086 -4.051048 -2.609438 0.695025 -75.760205 6.591221 36.867279 112.038947 -56.797031 -80.151948 -0.250797 0.072910 -27.528885 32.597536 3.107977 1.858560 -7.125000 0.000000 0.000000 5.047004 33.382381 -1.441832 6.585355 2.168519 -0.492900 65.626162 -21.488708 47.154763 -78.776376 59.665091 -50.455295 0.330885 -0.839236 -10.797908 -51.968350 34.564804 -36.996941 7.125000 0.000000 0.000000 -9.525461 19.094509 -12.251812
9.342076 17.224539 -12.292495 2.247617 -3.665800 2.933637 -5.190476 1.209855 1.718738 -21.509932 -9.842245 -19.104154 2.815837 12.225074 39.247238 1.072737 -0.671483 -5.330676 0.034092 1.161933 3.194683 2.054768 -1.831248 1.564358 11.607805 9.123841 -21.109998 -22.290258 -18.649102 97.254219 2.784126 -13.709887 2.664698 -0.818289 5.772083 -16.124413 -2.272599 0.273723 13.052171 0.111568 0.133710 -1.979424 -0.360109 0.109468 -2.402201 -6.357176 1.311006 -8.205916 7.572306 2.078931 -13.837009 2.401872 0.753776 -3.380772 -4.083741 -2.634924 0.720413 -75.197520 5.274262 37.426248 112.664083 -56.629216 -80.694180 -0.244809 0.066357 -27.506488 32.671830 3.201391 1.930221 -7.125000 0.000000 0.000000 5.110208 33.506862 -1.444664 6.576713 2.158304 -0.518344 65.767397 -22.344146 46.891097 -77.263001 59.607407 -49.208832 0.337934 -0.835774 -10.653352 -52.068739 34.672918 -37.170782 7.125000 0.000000 0.000000 -9.544221 19.262018 -12.293423
9.334451 17.205969 -12.149362 2.370934 -3.503568 3.022684 -5.182383 1.216608 1.806796 -21.702403 -9.687186 -18.855478 2.870764 12.241490 39.415012 1.258160 -1.188785 -5.619287 0.045782 1.372451 3.774282 2.011765 -1.729542 1.415861 11.401607 9.270173 -22.267823 -22.665726 -18.673591 98.414945 2.805278 -13.845447 2.067919 -0.804851 5.724541 -15.987379 -2.453105 0.253674 13.053847 0.088478 0.086658 -2.003578 -0.312205 0.075424 -2.467674 -6.659128 1.286411 -7.874089 7.887301 2.084998 -14.198624 2.552218 0.757319 -3.515906 -4.112809 -2.659231 0.743866 -74.669368 4.011921 37.938417 113.261718 -56.463827 -81.212803 -0.238482 0.060296 -27.394004 32.756324 3.306855 2.010931 -7.125000 0.000000 0.000000 5.182210 33.646151 -1.447531 6.569927 2.148527 -0.543061 65.883596 -23.153270 46.679512 -75.816047 59.530465 -48.019164 0.345118 -0.832312 -10.644357 -52.071984 34.818015 -37.269958 7.125000 0.000000 0.000000 -9.500263 19.411859 -12.250438
9.326422 17.190654 -12.007936 2.290640 -3.295783 3.188459 -5.176971 1.220431 1.892676 -21.641230 -9.534273 -18.653006 2.904161 12.243898 39.500851 1.441813 -1.701803 -5.807982 0.057109 1.529301 4.206643 1.976519 -1.621516 1.258578 11.452042 9.435039 -23.472619 -23.005220 -18.685911 99.474371 2.844601 -14.081954 1.523481 -0.773701 5.614455 -15.670139 -2.402976 0.189339 13.003364 0.092760 0.017108 -2.036057 -0.311530 0.031709 -2.524928 -6.966133 1.269940 -7.533483 8.210318 2.106281 -14.624860 2.657623 0.762825 -3.580408 -4.137576 -2.682139 0.765024 -74.182172 2.814360 38.395078 113.826737 -56.301315 -81.703425 -0.231752 0.054818 -27.174672 32.852915 3.426612 2.102374 -7.125000 0.000000 0.000000 5.264647 33.803001 -1.450442 6.565340 2.139269 -0.566916 65.970101 -23.907466 46.529699 -74.447873 59.430682 -46.896857 0.352462 -0.828848 -10.796144 -51.960012 35.006975 -37.280577 7.125000 0.000000 0.000000 -9.381918 19.540745 -12.107118
